<svg width="113" height="18" viewBox="0 0 113 18" fill="none" xmlns="http://www.w3.org/2000/svg">
<path d="M12.9803 0.790945C13.587 0.790945 14.082 0.990679 14.4652 1.39015C14.8643 1.78961 15.0639 2.30892 15.0639 2.94807V15.771C15.0639 16.4261 14.8723 16.9534 14.4891 17.3529C14.1059 17.7523 13.611 17.9521 13.0043 17.9521C12.2858 17.9521 11.743 17.7124 11.3758 17.233L4.09527 8.14913V15.771C4.09527 16.4261 3.91166 16.9534 3.54445 17.3529C3.17723 17.7523 2.68228 17.9521 2.05961 17.9521C1.4529 17.9521 0.957958 17.7523 0.574775 17.3529C0.191592 16.9534 0 16.4261 0 15.771V2.94807C0 2.30892 0.191592 1.78961 0.574775 1.39015C0.957958 0.990679 1.4529 0.790945 2.05961 0.790945C2.74615 0.790945 3.28101 1.03063 3.66419 1.50999L10.9447 10.5699V2.94807C10.9447 2.29294 11.1283 1.77364 11.4955 1.39015C11.8787 0.990679 12.3736 0.790945 12.9803 0.790945Z" fill="url(#paint0_linear_27021_91)"/>
<path d="M27.5853 5.7763C28.2399 5.7763 28.7588 5.95206 29.142 6.3036C29.5251 6.65513 29.7167 7.13449 29.7167 7.74168V16.0346C29.7167 16.5939 29.5172 17.0573 29.118 17.4248C28.7189 17.7763 28.2 17.9521 27.5613 17.9521C26.9866 17.9521 26.5156 17.8003 26.1483 17.4967C25.7811 17.1771 25.5895 16.7537 25.5736 16.2264C25.2063 16.8016 24.7353 17.241 24.1606 17.5446C23.6018 17.8482 22.9551 18 22.2207 18C20.7039 18 19.5783 17.5846 18.8439 16.7537C18.1095 15.9068 17.7423 14.6285 17.7423 12.9188V7.74168C17.7423 7.13449 17.9338 6.65513 18.317 6.3036C18.7002 5.95206 19.2191 5.7763 19.8737 5.7763C20.5283 5.7763 21.0472 5.95206 21.4304 6.3036C21.8136 6.65513 22.0052 7.13449 22.0052 7.74168V13.0146C22.0052 14.1651 22.5001 14.7403 23.49 14.7403C24.0648 14.7403 24.5358 14.5326 24.903 14.1172C25.2702 13.7017 25.4538 13.1585 25.4538 12.4874V7.74168C25.4538 7.13449 25.6454 6.65513 26.0286 6.3036C26.4118 5.95206 26.9307 5.7763 27.5853 5.7763Z" fill="url(#paint1_linear_27021_91)"/>
<path d="M53.5877 14.5007C54.0028 14.9001 54.2103 15.3635 54.2103 15.8908C54.2103 16.4181 54.0108 16.8815 53.6116 17.281C53.2125 17.6804 52.7415 17.8802 52.1986 17.8802C51.6079 17.8802 51.065 17.6245 50.5701 17.1132L43.7446 10.1145V15.771C43.7446 16.4421 43.5451 16.9774 43.1459 17.3768C42.7468 17.7603 42.2039 17.9521 41.5174 17.9521C40.8468 17.9521 40.312 17.7603 39.9128 17.3768C39.5296 16.9774 39.338 16.4421 39.338 15.771V2.94807C39.338 2.29294 39.5296 1.77364 39.9128 1.39015C40.312 0.990679 40.8468 0.790945 41.5174 0.790945C42.2039 0.790945 42.7468 0.990679 43.1459 1.39015C43.5451 1.77364 43.7446 2.29294 43.7446 2.94807V8.22104L50.4743 1.43808C50.8894 1.00666 51.3604 0.790945 51.8873 0.790945C52.4142 0.790945 52.8772 0.990679 53.2763 1.39015C53.6755 1.77364 53.8751 2.22903 53.8751 2.75633C53.8751 3.28362 53.6436 3.77097 53.1805 4.21838L48.271 9.03595L53.5877 14.5007Z" fill="url(#paint2_linear_27021_91)"/>
<path d="M65.2355 14.0213C65.6027 14.0213 65.8981 14.1651 66.1216 14.4527C66.3611 14.7403 66.4808 15.1158 66.4808 15.5792C66.4808 16.2184 66.1695 16.7057 65.5468 17.0413C65.004 17.3129 64.3573 17.5446 63.6069 17.7364C62.8725 17.9121 62.194 18 61.5713 18C60.2621 18 59.1205 17.7523 58.1466 17.257C57.1727 16.7617 56.4223 16.0506 55.8954 15.1238C55.3685 14.1971 55.1051 13.1105 55.1051 11.8642C55.1051 10.6818 55.3525 9.62716 55.8475 8.7004C56.3584 7.75766 57.0609 7.03063 57.955 6.51931C58.865 5.99201 59.8869 5.72836 61.0205 5.72836C62.1221 5.72836 63.088 5.96804 63.9183 6.4474C64.7485 6.92676 65.3872 7.60586 65.8342 8.48469C66.2972 9.36352 66.5287 10.3941 66.5287 11.5766C66.5287 11.9441 66.4409 12.2317 66.2653 12.4394C66.1056 12.6312 65.8661 12.727 65.5468 12.727H59.2243C59.336 13.494 59.5835 14.0453 59.9667 14.3808C60.3499 14.7164 60.9167 14.8842 61.6671 14.8842C62.0662 14.8842 62.4334 14.8442 62.7687 14.7643C63.104 14.6684 63.4792 14.5406 63.8943 14.3808C64.1338 14.285 64.3653 14.2051 64.5889 14.1411C64.8283 14.0613 65.0439 14.0213 65.2355 14.0213ZM61.1402 8.60453C60.5814 8.60453 60.1343 8.78828 59.7991 9.15579C59.4638 9.50732 59.2642 10.0266 59.2003 10.7137H62.9603C62.8645 9.30759 62.2578 8.60453 61.1402 8.60453Z" fill="url(#paint3_linear_27021_91)"/>
<path d="M76.3994 5.72836C77.8044 5.72836 78.8502 6.1518 79.5367 6.99867C80.2233 7.82956 80.5666 9.09987 80.5666 10.8096V15.9867C80.5666 16.5939 80.375 17.0732 79.9918 17.4248C79.6086 17.7763 79.0897 17.9521 78.4351 17.9521C77.7805 17.9521 77.2616 17.7763 76.8784 17.4248C76.4952 17.0732 76.3036 16.5939 76.3036 15.9867V11.0013C76.3036 10.2983 76.1759 9.78695 75.9205 9.46738C75.681 9.1478 75.3137 8.98802 74.8188 8.98802C74.1802 8.98802 73.6693 9.19574 73.2861 9.61119C72.9189 10.0107 72.7352 10.5539 72.7352 11.241V15.9867C72.7352 16.5939 72.5437 17.0732 72.1605 17.4248C71.7773 17.7763 71.2584 17.9521 70.6038 17.9521C69.9492 17.9521 69.4303 17.7763 69.0471 17.4248C68.6639 17.0732 68.4723 16.5939 68.4723 15.9867V7.69374C68.4723 7.13449 68.6719 6.67909 69.071 6.32756C69.4702 5.96005 69.9891 5.7763 70.6277 5.7763C71.2344 5.7763 71.7134 5.94407 72.0647 6.27963C72.4319 6.61518 72.6155 7.05459 72.6155 7.59787C73.0306 6.99068 73.5655 6.5273 74.2201 6.20772C74.8747 5.88815 75.6011 5.72836 76.3994 5.72836Z" fill="url(#paint4_linear_27021_91)"/>
<path d="M91.9056 14.6684C93.1829 14.6684 93.8216 15.1878 93.8216 16.2264C93.8216 17.281 93.1829 17.8083 91.9056 17.8083H84.3617C83.8029 17.8083 83.3479 17.6325 82.9966 17.281C82.6454 16.9294 82.4697 16.506 82.4697 16.0107C82.4697 15.4834 82.6693 14.996 83.0685 14.5486L88.0978 9.15579H84.242C82.9647 9.15579 82.3261 8.6285 82.3261 7.5739C82.3261 6.53529 82.9647 6.01598 84.242 6.01598H91.4985C92.0573 6.01598 92.5123 6.19174 92.8636 6.54328C93.2148 6.89481 93.3905 7.31824 93.3905 7.81358C93.3905 8.3249 93.1909 8.80426 92.7917 9.25166L87.7385 14.6684H91.9056Z" fill="url(#paint5_linear_27021_91)"/>
<path d="M97.523 17.9521C96.9163 17.9521 96.4054 17.7923 95.9902 17.4727C95.5911 17.1372 95.3915 16.6418 95.3915 15.9867V7.74168C95.3915 7.08655 95.5911 6.5992 95.9902 6.27963C96.4054 5.94407 96.9163 5.7763 97.523 5.7763C98.1297 5.7763 98.6326 5.94407 99.0318 6.27963C99.4469 6.5992 99.6544 7.08655 99.6544 7.74168V15.9867C99.6544 16.6418 99.4469 17.1372 99.0318 17.4727C98.6326 17.7923 98.1297 17.9521 97.523 17.9521ZM97.523 4.09854C96.8045 4.09854 96.2297 3.91478 95.7987 3.54727C95.3835 3.16378 95.176 2.66045 95.176 2.03728C95.176 1.41411 95.3835 0.918775 95.7987 0.551265C96.2297 0.183755 96.8045 0 97.523 0C98.2255 0 98.7923 0.183755 99.2234 0.551265C99.6544 0.918775 99.87 1.41411 99.87 2.03728C99.87 2.66045 99.6544 3.16378 99.2234 3.54727C98.8082 3.91478 98.2414 4.09854 97.523 4.09854Z" fill="url(#paint6_linear_27021_91)"/>
<path d="M111.707 14.0213C112.074 14.0213 112.369 14.1651 112.593 14.4527C112.832 14.7403 112.952 15.1158 112.952 15.5792C112.952 16.2184 112.641 16.7057 112.018 17.0413C111.475 17.3129 110.829 17.5446 110.078 17.7364C109.344 17.9121 108.665 18 108.043 18C106.733 18 105.592 17.7523 104.618 17.257C103.644 16.7617 102.894 16.0506 102.367 15.1238C101.84 14.1971 101.576 13.1105 101.576 11.8642C101.576 10.6818 101.824 9.62716 102.319 8.7004C102.83 7.75766 103.532 7.03063 104.426 6.51931C105.336 5.99201 106.358 5.72836 107.492 5.72836C108.593 5.72836 109.559 5.96804 110.39 6.4474C111.22 6.92676 111.858 7.60586 112.305 8.48469C112.768 9.36352 113 10.3941 113 11.5766C113 11.9441 112.912 12.2317 112.737 12.4394C112.577 12.6312 112.337 12.727 112.018 12.727H105.696C105.807 13.494 106.055 14.0453 106.438 14.3808C106.821 14.7164 107.388 14.8842 108.138 14.8842C108.538 14.8842 108.905 14.8442 109.24 14.7643C109.575 14.6684 109.95 14.5406 110.366 14.3808C110.605 14.285 110.837 14.2051 111.06 14.1411C111.3 14.0613 111.515 14.0213 111.707 14.0213ZM107.611 8.60453C107.053 8.60453 106.606 8.78828 106.27 9.15579C105.935 9.50732 105.735 10.0266 105.672 10.7137H109.432C109.336 9.30759 108.729 8.60453 107.611 8.60453Z" fill="url(#paint7_linear_27021_91)"/>
<defs>
<linearGradient id="paint0_linear_27021_91" x1="32.5943" y1="17.8082" x2="33.0549" y2="17.8082" gradientUnits="userSpaceOnUse">
<stop stop-color="#FD377E"/>
<stop offset="1" stop-color="#212529"/>
</linearGradient>
<linearGradient id="paint1_linear_27021_91" x1="32.5943" y1="17.8082" x2="33.0549" y2="17.8082" gradientUnits="userSpaceOnUse">
<stop stop-color="#FD377E"/>
<stop offset="1" stop-color="#212529"/>
</linearGradient>
<linearGradient id="paint2_linear_27021_91" x1="32.5943" y1="17.8082" x2="33.0549" y2="17.8082" gradientUnits="userSpaceOnUse">
<stop stop-color="#FD377E"/>
<stop offset="1" stop-color="#212529"/>
</linearGradient>
<linearGradient id="paint3_linear_27021_91" x1="32.5943" y1="17.8082" x2="33.0549" y2="17.8082" gradientUnits="userSpaceOnUse">
<stop stop-color="#FD377E"/>
<stop offset="1" stop-color="#212529"/>
</linearGradient>
<linearGradient id="paint4_linear_27021_91" x1="32.5943" y1="17.8082" x2="33.0549" y2="17.8082" gradientUnits="userSpaceOnUse">
<stop stop-color="#FD377E"/>
<stop offset="1" stop-color="#212529"/>
</linearGradient>
<linearGradient id="paint5_linear_27021_91" x1="32.5943" y1="17.8082" x2="33.0549" y2="17.8082" gradientUnits="userSpaceOnUse">
<stop stop-color="#FD377E"/>
<stop offset="1" stop-color="#212529"/>
</linearGradient>
<linearGradient id="paint6_linear_27021_91" x1="32.5943" y1="17.8082" x2="33.0549" y2="17.8082" gradientUnits="userSpaceOnUse">
<stop stop-color="#FD377E"/>
<stop offset="1" stop-color="#212529"/>
</linearGradient>
<linearGradient id="paint7_linear_27021_91" x1="32.5943" y1="17.8082" x2="33.0549" y2="17.8082" gradientUnits="userSpaceOnUse">
<stop stop-color="#FD377E"/>
<stop offset="1" stop-color="#212529"/>
</linearGradient>
</defs>
</svg>
